<svg id="Capa_1" enable-background="new 0 0 512 512" height="512" viewBox="0 0 512 512" width="512" xmlns="http://www.w3.org/2000/svg"><g><g><path d="m453.356 108.022h-43.822c-4.861 0-9.481 1.044-13.658 2.907v-100.929c0-5.522-4.478-10-10-10s-10 4.478-10 10v18.339c-25.368 4.519-51.169 7.639-76.83 9.259-5.512.349-9.698 5.099-9.351 10.61.349 5.512 5.106 9.698 10.61 9.351 25.229-1.593 50.593-4.581 75.57-8.898v111.374c-68.903 11.69-168.518 11.309-239.751-.929v-110.418c24.647 3.362 49.388 6.141 74.122 8.787 5.498.594 10.426-3.369 11.023-8.86.597-5.49-3.37-10.425-8.86-11.022-25.542-2.779-61.216-6.912-76.285-9.102v-18.491c0-5.522-4.477-10-10-10s-10 4.478-10 10v100.93c-4.178-1.863-8.797-2.907-13.659-2.907h-43.821c-18.56 0-33.659 15.1-33.659 33.659s15.1 33.658 33.659 33.658h10.015v84.734c0 15.497 9.215 27.84 22.511 31.676 3.598 14.35 15.83 25.306 30.832 27.009l82.298 74.526-92.52 83.832c-6.188 5.607-8.246 14.266-5.24 22.057 3.005 7.792 10.342 12.826 18.693 12.826h35.657c10.129 0 19.841-3.744 27.349-10.543l67.761-61.359 67.756 61.358c7.508 6.8 17.221 10.544 27.35 10.544h35.665c8.351 0 15.688-5.034 18.693-12.826 3.005-7.791.948-16.449-5.24-22.057l-92.525-83.835 82.303-74.529c14.981-1.719 27.192-12.665 30.788-27 13.32-3.833 22.552-16.178 22.552-31.68v-84.733h10.016c18.56 0 33.659-15.1 33.659-33.659s-15.101-33.659-33.661-33.659zm-66.544 383.932c-.005.016-.011.031-.018.046-.008 0-.016 0-.024 0h-35.665c-5.157 0-10.103-1.906-13.925-5.368l-66.28-60.022 21.901-19.836 93.992 85.164c.008.005.013.011.019.016zm-126.454-303.454c41.059 0 81.663-2.734 115.518-8.207v66.708h-239.752v-67.632c36.914 6.072 80.805 9.131 124.234 9.131zm-215.373-46.819c0-7.531 6.127-13.658 13.659-13.658h43.821c7.525 0 13.648 6.117 13.658 13.64v.039c-.011 7.522-6.133 13.639-13.658 13.639h-43.821c-7.532-.001-13.659-6.129-13.659-13.66zm43.674 33.659h13.806c4.862 0 9.482-1.044 13.659-2.907v75.982c-10.839 3.128-19.589 11.219-23.62 21.647-2.603-2.53-3.845-6.335-3.845-9.987zm167.34 171.102-30.289-27.444h60.577zm-36.807 33.347-67.128-60.789h43.863l45.18 40.937zm-44.377 106.844c-3.822 3.461-8.767 5.367-13.924 5.367h-35.657c-.009 0-.017 0-.024 0-.007-.015-.013-.03-.018-.046.005-.005.011-.011.018-.017l190.858-172.936h43.862zm211.057-187.635h-259.784c-8.822 0-15.999-7.177-15.999-15.998 0-8.822 7.177-15.999 15.999-15.999h259.784c8.821 0 15.998 7.177 15.998 15.999 0 8.821-7.177 15.998-15.998 15.998zm37.469-38.924c0 4.585-1.591 7.872-3.885 9.988-4.026-10.415-12.759-18.499-23.58-21.636v-75.993c4.177 1.863 8.797 2.907 13.658 2.907h13.807zm30.015-104.734h-43.822c-7.531 0-13.658-6.128-13.658-13.659s6.127-13.658 13.658-13.658h43.822c7.531 0 13.659 6.128 13.659 13.659s-6.128 13.658-13.659 13.658z"/><path d="m246.77 52.67c3.434 8.369 15.791 7.893 18.691-.608 2.938-8.615-6.795-16.467-14.599-11.793-4.192 2.511-5.969 7.892-4.092 12.401z"/></g></g></svg>